<?xml version="1.0" encoding="UTF-8" standalone="no"?><!DOCTYPE svg PUBLIC "-//W3C//DTD SVG 1.1//EN" "http://www.w3.org/Graphics/SVG/1.1/DTD/svg11.dtd"><svg width="100%" height="100%" viewBox="0 0 817 142" version="1.1" xmlns="http://www.w3.org/2000/svg" xmlns:xlink="http://www.w3.org/1999/xlink" xml:space="preserve" xmlns:serif="http://www.serif.com/" style="fill-rule:evenodd;clip-rule:evenodd;stroke-linejoin:round;stroke-miterlimit:2;"><path d="M58.05,33.15c13.6,0 23.6,2.75 30,8.25c6.5,5.5 9.75,12.7 9.75,21.6c0,3 -0.4,6.35 -1.2,10.05c-1.9,8.2 -5.45,15.4 -10.65,21.6c-5.2,6.1 -11.6,10.85 -19.2,14.25c-7.5,3.3 -15.65,4.95 -24.45,4.95c-13.9,0 -24.2,-2.75 -30.9,-8.25c-6.6,-5.6 -9.9,-13 -9.9,-22.2c-0,-3.1 0.4,-6.55 1.2,-10.35c1.9,-7.8 5.5,-14.7 10.8,-20.7c5.4,-6.1 11.95,-10.8 19.65,-14.1c7.8,-3.4 16.1,-5.1 24.9,-5.1Zm-0.45,13.35c-2.1,0 -4.35,1.9 -6.75,5.7c-2.3,3.7 -5.05,10.75 -8.25,21.15c-3.2,10.4 -4.8,17.7 -4.8,21.9c-0,2.2 0.35,3.7 1.05,4.5c0.7,0.7 1.65,1.05 2.85,1.05c2.1,0.2 4.25,-1.6 6.45,-5.4c2.3,-3.8 5.15,-11.2 8.55,-22.2c3.1,-9.7 4.65,-16.75 4.65,-21.15c0,-2.1 -0.35,-3.55 -1.05,-4.35c-0.6,-0.8 -1.5,-1.2 -2.7,-1.2Z" style="fill:#fff;fill-rule:nonzero;"/><path d="M187.458,91.8c-0.2,0.4 -0.3,1 -0.3,1.8c-0,0.7 0.15,1.25 0.45,1.65c0.4,0.4 0.9,0.6 1.5,0.6c1.2,0 2.2,-0.5 3,-1.5c0.9,-1.1 1.5,-1.65 1.8,-1.65c0.5,0 0.9,0.35 1.2,1.05c0.3,0.6 0.45,1.35 0.45,2.25c0.1,2.9 -0.85,5.75 -2.85,8.55c-2,2.7 -4.95,4.95 -8.85,6.75c-3.8,1.7 -8.4,2.55 -13.8,2.55c-6.6,0 -11.85,-1.5 -15.75,-4.5c-3.9,-3.1 -5.9,-7.2 -6,-12.3c-0,-3.7 0.9,-7.85 2.7,-12.45l8.25,-21.6c0.5,-1.3 0.75,-2.35 0.75,-3.15c-0,-1.3 -0.45,-2.3 -1.35,-3c-0.8,-0.8 -1.8,-1.2 -3,-1.2c-1.9,0 -3.85,0.9 -5.85,2.7c-1.9,1.7 -3.45,4.5 -4.65,8.4l-0,-0.3l-9.45,30.45c-0.3,1.2 -0.45,2.25 -0.45,3.15c-0,1.3 0.25,2.35 0.75,3.15c0.5,0.7 1.2,1.4 2.1,2.1c0.7,0.7 1.2,1.3 1.5,1.8c0.3,0.4 0.35,0.95 0.15,1.65c-0.5,1.3 -1.5,2.25 -3,2.85c-1.5,0.6 -3.8,0.9 -6.9,0.9l-34.2,0c-2.6,0 -4.5,-0.4 -5.7,-1.2c-1.2,-0.9 -1.6,-2.05 -1.2,-3.45c0.4,-1.2 1.45,-2.25 3.15,-3.15c1.5,-0.8 2.75,-1.75 3.75,-2.85c1,-1.1 1.85,-2.85 2.55,-5.25l22.8,-74.85c0.3,-0.9 0.45,-1.65 0.45,-2.25c-0,-1.1 -0.3,-2 -0.9,-2.7c-0.5,-0.7 -1.2,-1.4 -2.1,-2.1c-1,-0.8 -1.75,-1.5 -2.25,-2.1c-0.4,-0.6 -0.45,-1.4 -0.15,-2.4c0.6,-2.3 3.75,-4.3 9.45,-6c5.7,-1.7 11.65,-2.55 17.85,-2.55c5.8,-0 10.05,1.1 12.75,3.3c2.8,2.2 4.2,5.2 4.2,9c-0,2.2 -0.35,4.35 -1.05,6.45l-8.1,26.4c3.9,-5.1 8,-8.65 12.3,-10.65c4.4,-2 9.15,-3 14.25,-3c6.1,0 11,1.85 14.7,5.55c3.8,3.7 5.7,8.5 5.7,14.4c-0,3.1 -0.5,6.15 -1.5,9.15l-9.15,29.55Z" style="fill:#fff;fill-rule:nonzero;"/><path d="M344.652,91.8c-0.2,0.4 -0.3,1 -0.3,1.8c0,0.7 0.15,1.25 0.45,1.65c0.4,0.4 0.9,0.6 1.5,0.6c1.2,0 2.2,-0.5 3,-1.5c0.9,-1.1 1.5,-1.65 1.8,-1.65c0.5,0 0.9,0.35 1.2,1.05c0.3,0.6 0.45,1.35 0.45,2.25c0.1,2.9 -0.85,5.75 -2.85,8.55c-2,2.7 -4.95,4.95 -8.85,6.75c-3.8,1.7 -8.4,2.55 -13.8,2.55c-6.6,0 -11.85,-1.5 -15.75,-4.5c-3.9,-3.1 -5.9,-7.2 -6,-12.3c0,-3.7 0.9,-7.85 2.7,-12.45l8.25,-21.6c0.5,-1.3 0.75,-2.35 0.75,-3.15c0,-1.3 -0.45,-2.3 -1.35,-3c-0.8,-0.8 -1.8,-1.2 -3,-1.2c-1.7,0 -3.45,0.75 -5.25,2.25c-1.8,1.5 -3.4,3.85 -4.8,7.05l-8.25,26.85c-0.2,0.4 -0.3,1 -0.3,1.8c0,0.7 0.15,1.25 0.45,1.65c0.4,0.4 0.9,0.6 1.5,0.6c1.2,0 2.2,-0.5 3,-1.5c0.9,-1.1 1.5,-1.65 1.8,-1.65c0.5,0 0.9,0.35 1.2,1.05c0.3,0.6 0.45,1.35 0.45,2.25c0.1,2.9 -0.85,5.75 -2.85,8.55c-2,2.7 -4.95,4.95 -8.85,6.75c-3.8,1.7 -8.4,2.55 -13.8,2.55c-6.6,0 -11.85,-1.5 -15.75,-4.5c-3.9,-3.1 -5.9,-7.2 -6,-12.3c0,-3.7 0.9,-7.85 2.7,-12.45l8.25,-21.6c0.5,-1.3 0.75,-2.35 0.75,-3.15c0,-1.3 -0.45,-2.3 -1.35,-3c-0.8,-0.8 -1.8,-1.2 -3,-1.2c-1.7,0 -3.45,0.75 -5.25,2.25c-1.8,1.4 -3.3,3.7 -4.5,6.9l-9.9,32.1c-0.4,1.1 -0.6,2.15 -0.6,3.15c0,1.2 0.25,2.2 0.75,3c0.5,0.7 1.2,1.45 2.1,2.25c0.7,0.6 1.2,1.15 1.5,1.65c0.3,0.5 0.35,1.1 0.15,1.8c-0.4,1.3 -1.35,2.25 -2.85,2.85c-1.5,0.6 -3.85,0.9 -7.05,0.9l-34.2,0c-2.6,0 -4.45,-0.4 -5.55,-1.2c-1.2,-0.9 -1.65,-2.05 -1.35,-3.45c0.4,-1.2 1.45,-2.25 3.15,-3.15c1.5,-0.8 2.75,-1.75 3.75,-2.85c1,-1.1 1.85,-2.85 2.55,-5.25l13.35,-43.35c0.2,-0.5 0.3,-1.2 0.3,-2.1c0,-1.1 -0.25,-1.95 -0.75,-2.55c-0.4,-0.6 -1.1,-1.35 -2.1,-2.25c-1,-0.8 -1.7,-1.5 -2.1,-2.1c-0.4,-0.6 -0.45,-1.4 -0.15,-2.4c0.6,-2.3 3.75,-4.3 9.45,-6c5.7,-1.8 11.65,-2.7 17.85,-2.7c4.9,0 8.75,1.35 11.55,4.05c2.9,2.7 4.3,6.4 4.2,11.1c4.1,-5.7 8.4,-9.65 12.9,-11.85c4.6,-2.2 9.55,-3.3 14.85,-3.3c5.8,0 10.5,1.7 14.1,5.1c3.7,3.3 5.75,7.65 6.15,13.05c4.3,-6.8 8.9,-11.5 13.8,-14.1c4.9,-2.7 10.25,-4.05 16.05,-4.05c6.1,0 11,1.85 14.7,5.55c3.8,3.7 5.7,8.5 5.7,14.4c0,3.1 -0.5,6.15 -1.5,9.15l-9.15,29.55Z" style="fill:#fff;fill-rule:nonzero;"/><path d="M437.217,33.15c4.4,0 7.9,1.8 10.5,5.4c2.7,3.5 4.05,8.3 4.05,14.4c-0,5.3 -0.95,11 -2.85,17.1c-3.7,12.3 -9.65,23.9 -17.85,34.8c-8.1,10.9 -17.452,19.65 -28.052,26.25c-10.5,6.6 -21,9.9 -31.5,9.9c-5.2,0 -9.7,-0.9 -13.5,-2.7c-3.7,-1.8 -6.5,-4.2 -8.4,-7.2c-2,-3 -3,-6.2 -3,-9.6c-0,-1.5 0.25,-3.15 0.75,-4.95c0.9,-2.8 2.4,-4.95 4.5,-6.45c2.1,-1.5 4.6,-2.25 7.5,-2.25c4.6,-0 8.35,1.55 11.25,4.65c3,3.2 4.9,7.55 5.7,13.05c6.4,-0.3 12.3,-3.05 17.7,-8.25c-5.1,-0.9 -8.9,-2.6 -11.4,-5.1c-2.4,-2.6 -4.05,-6.6 -4.95,-12l-6,-36.75c-0.3,-1.9 -0.75,-3.2 -1.35,-3.9c-0.5,-0.8 -1.2,-1.2 -2.1,-1.2c-0.7,-0 -1.55,0.35 -2.55,1.05c-0.9,0.7 -1.55,1.05 -1.95,1.05c-0.8,-0 -1.2,-0.85 -1.2,-2.55c-0,-1.4 0.25,-2.9 0.75,-4.5c1.8,-5.7 5.15,-10.5 10.05,-14.4c4.9,-4 10.6,-6 17.1,-6c6.4,-0 11.1,1.9 14.1,5.7c3.1,3.8 5.1,9.65 6,17.55l4.5,33c0.3,2.5 1.2,3.75 2.702,3.75c1.8,-0 3.9,-1.6 6.3,-4.8c2.4,-3.3 4.75,-7.95 7.05,-13.95c-3,-2.7 -5.3,-5.8 -6.9,-9.3c-1.6,-3.5 -2.4,-7.25 -2.4,-11.25c-0,-3.1 0.4,-5.9 1.2,-8.4c1.2,-4 3.05,-7 5.55,-9c2.6,-2.1 5.5,-3.15 8.7,-3.15Z" style="fill:#fff;fill-rule:nonzero;"/><path d="M511.933,1.65c10.7,-0 18.7,1.65 24,4.95c5.4,3.2 8.1,7.15 8.1,11.85c0,3.8 -1.6,6.75 -4.8,8.85c-3.1,2 -7.2,3 -12.3,3c-4.7,0 -8.35,-1.15 -10.95,-3.45c-2.6,-2.3 -3.9,-5.15 -3.9,-8.55c0,-2.1 0.65,-4.3 1.95,-6.6c-3,0 -5.5,0.75 -7.5,2.25c-2,1.4 -3.55,3.85 -4.65,7.35c-0.6,2.2 -0.9,4.25 -0.9,6.15c0,2.4 0.4,4.3 1.2,5.7c0.9,1.3 2.15,1.95 3.75,1.95l8.85,0c5.2,0 7.8,1.6 7.8,4.8c0,0.4 -0.1,1 -0.3,1.8c-0.6,2.2 -1.85,3.85 -3.75,4.95c-1.8,1.1 -4.55,1.65 -8.25,1.65l-4.5,0l-14.85,48.6c-0.3,1.2 -0.45,2.25 -0.45,3.15c0,1.3 0.25,2.35 0.75,3.15c0.5,0.7 1.2,1.4 2.1,2.1c0.7,0.7 1.2,1.3 1.5,1.8c0.3,0.4 0.35,0.95 0.15,1.65c-0.5,1.3 -1.5,2.25 -3,2.85c-1.5,0.6 -3.8,0.9 -6.9,0.9l-34.2,0c-2.6,0 -4.5,-0.4 -5.7,-1.2c-1.2,-0.9 -1.6,-2.05 -1.2,-3.45c0.4,-1.2 1.45,-2.25 3.15,-3.15c1.5,-0.8 2.75,-1.75 3.75,-2.85c1,-1.1 1.85,-2.85 2.55,-5.25l11.7,-38.4c0.5,-1.5 0.75,-3.05 0.75,-4.65c0,-2 -0.45,-3.55 -1.35,-4.65c-0.8,-1.2 -2.05,-2.5 -3.75,-3.9c-1.1,-0.9 -1.95,-1.65 -2.55,-2.25c-0.5,-0.7 -0.75,-1.5 -0.75,-2.4c-0.1,-1.9 0.55,-3.25 1.95,-4.05c1.5,-0.8 4.3,-1.2 8.4,-1.2l3.75,-0c-0.7,-2.5 -1.05,-5 -1.05,-7.5c0,-2.5 0.45,-5.1 1.35,-7.8c1.9,-5.1 5.95,-9.4 12.15,-12.9c6.3,-3.5 15.6,-5.25 27.9,-5.25Z" style="fill:#fff;fill-rule:nonzero;"/><path d="M571.183,33.15c13.6,0 23.6,2.75 30,8.25c6.5,5.5 9.75,12.7 9.75,21.6c0,3 -0.4,6.35 -1.2,10.05c-1.9,8.2 -5.45,15.4 -10.65,21.6c-5.2,6.1 -11.6,10.85 -19.2,14.25c-7.5,3.3 -15.65,4.95 -24.45,4.95c-13.9,0 -24.2,-2.75 -30.9,-8.25c-6.6,-5.6 -9.9,-13 -9.9,-22.2c0,-3.1 0.4,-6.55 1.2,-10.35c1.9,-7.8 5.5,-14.7 10.8,-20.7c5.4,-6.1 11.95,-10.8 19.65,-14.1c7.8,-3.4 16.1,-5.1 24.9,-5.1Zm-0.45,13.35c-2.1,0 -4.35,1.9 -6.75,5.7c-2.3,3.7 -5.05,10.75 -8.25,21.15c-3.2,10.4 -4.8,17.7 -4.8,21.9c0,2.2 0.35,3.7 1.05,4.5c0.7,0.7 1.65,1.05 2.85,1.05c2.1,0.2 4.25,-1.6 6.45,-5.4c2.3,-3.8 5.15,-11.2 8.55,-22.2c3.1,-9.7 4.65,-16.75 4.65,-21.15c0,-2.1 -0.35,-3.55 -1.05,-4.35c-0.6,-0.8 -1.5,-1.2 -2.7,-1.2Z" style="fill:#fff;fill-rule:nonzero;"/><path d="M669.621,33.15c13.6,0 23.6,2.75 30,8.25c6.5,5.5 9.75,12.7 9.75,21.6c-0,3 -0.4,6.35 -1.2,10.05c-1.9,8.2 -5.45,15.4 -10.65,21.6c-5.2,6.1 -11.6,10.85 -19.2,14.25c-7.5,3.3 -15.65,4.95 -24.45,4.95c-13.9,0 -24.2,-2.75 -30.9,-8.25c-6.6,-5.6 -9.9,-13 -9.9,-22.2c-0,-3.1 0.4,-6.55 1.2,-10.35c1.9,-7.8 5.5,-14.7 10.8,-20.7c5.4,-6.1 11.95,-10.8 19.65,-14.1c7.8,-3.4 16.1,-5.1 24.9,-5.1Zm-0.45,13.35c-2.1,0 -4.35,1.9 -6.75,5.7c-2.3,3.7 -5.05,10.75 -8.25,21.15c-3.2,10.4 -4.8,17.7 -4.8,21.9c-0,2.2 0.35,3.7 1.05,4.5c0.7,0.7 1.65,1.05 2.85,1.05c2.1,0.2 4.25,-1.6 6.45,-5.4c2.3,-3.8 5.15,-11.2 8.55,-22.2c3.1,-9.7 4.65,-16.75 4.65,-21.15c-0,-2.1 -0.35,-3.55 -1.05,-4.35c-0.6,-0.8 -1.5,-1.2 -2.7,-1.2Z" style="fill:#fff;fill-rule:nonzero;"/><path d="M793.858,90.9c-0.2,0.8 -0.3,1.35 -0.3,1.65c0,0.7 0.2,1.25 0.6,1.65c0.4,0.4 0.9,0.6 1.5,0.6c1.2,-0 2.2,-0.5 3,-1.5c0.9,-1.1 1.5,-1.65 1.8,-1.65c0.5,0 0.9,0.35 1.2,1.05c0.3,0.7 0.45,1.5 0.45,2.4c0.1,2.7 -0.95,5.45 -3.15,8.25c-2.1,2.8 -4.95,5.1 -8.55,6.9c-3.6,1.8 -7.5,2.7 -11.7,2.7c-5,0 -9.35,-0.95 -13.05,-2.85c-3.7,-1.9 -6.25,-4.4 -7.65,-7.5c-2.7,3.5 -5.8,6.1 -9.3,7.8c-3.5,1.7 -7.2,2.55 -11.1,2.55c-4.6,0 -8.9,-1.15 -12.9,-3.45c-3.9,-2.3 -7.05,-5.55 -9.45,-9.75c-2.3,-4.3 -3.45,-9.15 -3.45,-14.55c0,-9.1 1.7,-17.65 5.1,-25.65c3.5,-8.1 8.35,-14.6 14.55,-19.5c6.2,-5 13.25,-7.5 21.15,-7.5c4.3,-0 7.95,0.5 10.95,1.5c3.1,1 5.9,2.5 8.4,4.5l5.1,-16.8c0.3,-0.9 0.45,-1.65 0.45,-2.25c0,-1.1 -0.3,-2 -0.9,-2.7c-0.5,-0.7 -1.2,-1.4 -2.1,-2.1c-1,-0.8 -1.75,-1.5 -2.25,-2.1c-0.4,-0.6 -0.45,-1.4 -0.15,-2.4c0.6,-2.3 3.75,-4.3 9.45,-6c5.7,-1.7 11.65,-2.55 17.85,-2.55c5.8,-0 10.05,1.1 12.75,3.3c2.8,2.2 4.2,5.2 4.2,9c0,2.2 -0.35,4.35 -1.05,6.45l-21.45,70.5Zm-25.05,-42.15c-1.6,-1.4 -3.35,-2.1 -5.25,-2.1c-2.9,0 -5.75,2.15 -8.55,6.45c-2.8,4.3 -5.05,9.5 -6.75,15.6c-1.7,6.1 -2.5,11.6 -2.4,16.5c0,5.5 1.8,8.25 5.4,8.25c1.3,0 2.4,-0.5 3.3,-1.5c0.9,-1.1 1.75,-2.85 2.55,-5.25l11.7,-37.95Z" style="fill:#fff;fill-rule:nonzero;"/></svg>